<svg width="200" height="449" viewBox="0 0 200 449" fill="none" xmlns="http://www.w3.org/2000/svg">
<path fill-rule="evenodd" clip-rule="evenodd" d="M9.5 3C9.5 1.34315 10.8431 0 12.5 0H187.5C189.157 0 190.5 1.34315 190.5 3V12C190.5 12.4049 190.42 12.7911 190.274 13.1435L189.598 19.5708C189.533 20.1836 189.342 20.7762 189.036 21.3112L188.458 22.3236C187.882 23.3311 186.74 23.8733 185.595 23.6826C184.892 23.5654 184.261 23.1818 183.834 22.6115L183.372 21.9964C183.125 21.6669 182.923 21.3063 182.77 20.9239L182.275 19.6879C182.093 19.2318 181.844 18.805 181.537 18.4214L180.783 17.4786C180.269 16.8361 179.604 16.3304 178.848 16.0063L176.5 15H23.5L20.6911 16.2038C20.2374 16.3983 19.8387 16.7017 19.5303 17.0872L18.2777 18.6529C18.0936 18.883 17.9444 19.1391 17.8349 19.4128L17.1474 21.1316C17.0495 21.3761 16.92 21.6067 16.7619 21.8174L16.1664 22.6115C15.7386 23.1818 15.1077 23.5654 14.4045 23.6826C13.26 23.8733 12.1177 23.3311 11.5421 22.3236L10.8128 21.0474C10.6065 20.6864 10.4775 20.2865 10.434 19.873L9.72563 13.1435C9.58022 12.7911 9.5 12.4049 9.5 12V3Z" fill="#FF2C2C"/>
<path fill-rule="evenodd" clip-rule="evenodd" d="M178.876 120.777H20.7506L14.2553 129.438C13.631 130.27 12.6199 130.72 11.5837 130.625L10.3737 130.515C8.87325 130.379 7.7067 129.151 7.64766 127.645L6.90473 108.701C6.82723 106.724 8.64985 105.215 10.577 105.66L12.5047 106.105C12.9943 106.218 13.4477 106.452 13.8232 106.786L20.5637 112.777H179.974L185.925 106.086C186.301 105.663 186.79 105.355 187.334 105.198L188.571 104.84C190.442 104.3 192.325 105.658 192.401 107.605L193.097 125.353C193.174 127.33 191.352 128.839 189.425 128.394L187.497 127.949C187.007 127.836 186.554 127.602 186.179 127.268L178.876 120.777Z" fill="#FF2C2C"/>
<path fill-rule="evenodd" clip-rule="evenodd" d="M178.876 227.087H20.7509L14.2553 235.748C13.631 236.58 12.6199 237.03 11.5837 236.935L10.3737 236.825C8.87325 236.689 7.7067 235.461 7.64766 233.955L6.90473 215.011C6.82723 213.034 8.64985 211.525 10.577 211.97L12.5047 212.415C12.9943 212.528 13.4477 212.762 13.8232 213.096L20.5634 219.087H180.203L186.104 213.07C186.366 212.802 186.676 212.586 187.018 212.433L188.2 211.903C190.138 211.034 192.342 212.4 192.425 214.523L193.097 231.663C193.174 233.639 191.352 235.149 189.425 234.704L187.497 234.259C187.007 234.146 186.554 233.912 186.179 233.578L178.876 227.087Z" fill="#FF2C2C"/>
<path fill-rule="evenodd" clip-rule="evenodd" d="M178.876 333.45H20.7507L14.2553 342.111C13.631 342.943 12.6199 343.393 11.5837 343.298L10.3737 343.188C8.87325 343.052 7.7067 341.824 7.64766 340.318L6.90473 321.374C6.82723 319.397 8.64985 317.888 10.577 318.333L12.5047 318.778C12.9943 318.891 13.4477 319.125 13.8232 319.459L20.5635 325.45H180.099L185.578 319.618C185.857 319.321 186.194 319.084 186.568 318.921L188.229 318.199C190.164 317.358 192.34 318.724 192.423 320.833L193.097 338.026C193.174 340.003 191.352 341.512 189.425 341.067L187.497 340.622C187.007 340.509 186.554 340.275 186.179 339.941L178.876 333.45Z" fill="#FF2C2C"/>
<path fill-rule="evenodd" clip-rule="evenodd" d="M190.5 445.031C190.5 446.688 189.157 448.031 187.5 448.031H12.5C10.8431 448.031 9.5 446.688 9.5 445.031V436.031C9.5 435.626 9.58022 435.24 9.72563 434.888L10.4022 428.46C10.4667 427.848 10.6579 427.255 10.9635 426.72L11.5421 425.708C12.1178 424.7 13.26 424.158 14.4045 424.349C15.1077 424.466 15.7386 424.849 16.1664 425.42L16.6277 426.035C16.8748 426.364 17.0775 426.725 17.2304 427.107L17.7248 428.343C17.9073 428.799 18.156 429.226 18.4629 429.61L19.2171 430.553C19.7311 431.195 20.3957 431.701 21.1519 432.025L23.5 433.031H176.5L179.309 431.827C179.763 431.633 180.161 431.33 180.47 430.944L181.722 429.378C181.906 429.148 182.056 428.892 182.165 428.618L182.853 426.9C182.95 426.655 183.08 426.425 183.238 426.214L183.834 425.42C184.261 424.849 184.892 424.466 185.595 424.349C186.74 424.158 187.882 424.7 188.458 425.708L189.187 426.984C189.393 427.345 189.522 427.745 189.566 428.158L190.274 434.888C190.42 435.24 190.5 435.626 190.5 436.031V445.031Z" fill="#FF2C2C"/>
</svg>
