<svg width="127" height="126" viewBox="0 0 127 126" fill="none" xmlns="http://www.w3.org/2000/svg">
<path d="M16.6099 57.0514V58.7364L14.6841 57.5328H11.0733L6.86061 62.1066L4.57374 63.0695L0 60.5419L1.80542 65.597L7.34206 68.6061L14.6841 65.597V67.7636L16.6099 70.7726L12.8787 69.9301L9.14748 73.3002L8.06422 76.3092L4.57374 77.9943L1.80542 77.2721L3.49049 81.4848L8.66603 82.4477L12.3972 81.4848L12.8787 80.2812L16.6099 78.8368L20.1004 82.4477H18.5357L13.9619 87.1418L14.6841 89.4286L11.6751 92.197H8.66603L11.0733 95.0856L17.5728 95.5671L22.8687 90.2712L26.1185 92.7988L22.8687 93.882L21.5447 96.7707L22.8687 99.0576L21.5447 102.428H21.0633V103.752L16.6099 105.437L21.5447 107.724L27.8035 105.437L30.8126 99.0576L36.1085 100.983L32.8587 102.789L31.8958 107.242L33.4605 109.409V113.02L29.97 115.908L34.6641 117.232L39.1175 114.584L41.284 111.816L40.3211 110.492L41.284 106.159H47.4225L44.378 109.409L45.7374 111.214L44.7745 113.862L47.4225 115.427L48.0243 119.278L44.7745 122.528H49.7093L52.2369 120.241L51.274 119.278L53.922 116.51L52.9591 111.214L56.2088 108.686L60.0604 109.409L57.8939 111.214L58.8568 115.427L60.0604 117.232L62.4676 118.195L63.0695 120.723L60.903 125.296L66.5599 123.491L68.7264 118.195L67.6432 116.51L66.5599 111.214L72.578 108.686L69.8097 111.214L73.3002 115.427H76.0685L79.3183 118.676L77.7536 123.491L82.8088 120.241L83.6513 113.862L79.3183 108.686L84.2531 104.715L83.6513 107.724L85.3363 111.214H90.0304L93.0395 113.862V118.195L95.8078 114.584L96.7707 110.492L95.4467 109.409L95.8078 108.686V107.242L94.0024 106.159L90.6323 102.789L94.0024 99.0576L95.4467 102.428L98.0947 103.752L102.428 102.789L105.798 104.715L106.52 108.686L109.048 103.752L107.242 100.983H106.52L107.242 99.7797L105.798 96.7707L99.7797 95.0856L100.382 92.7988L102.428 89.4286L103.391 92.197L109.048 92.7988L110.853 90.9933L115.306 92.197L116.39 95.0856L118.195 90.2712L117.834 88.1047H116.39L112.418 84.7345L110.853 85.3363V84.1327L107.242 83.6513V77.2721L110.131 80.2812H114.584L116.39 77.9943L120.121 77.2721L123.13 80.2812V74.6242L122.287 72.8187L121.445 73.3002L118.195 70.7726L115.306 71.9762L114.584 71.1337H110.853V69.2079L109.048 67.1618L111.696 66.3192L113.742 68.6061L117.834 66.3192L118.797 63.0695L121.445 62.1066L126.5 65.1156L125.296 58.7364H122.287L118.797 57.0514L115.788 58.7364L114.584 57.5328L113.26 58.7364L110.131 53.6813L113.26 54.5238L117.112 51.9962L115.306 51.5147L117.112 50.7926L117.834 48.0243L120.121 46.8206L124.333 48.0243L122.287 43.3302L114.584 42.4876L111.696 45.0152L107.964 44.4134L105.798 42.4876L109.649 41.7655L112.418 38.5157L111.696 34.7845L113.742 32.7383L118.797 33.2198L114.584 29.1275L107.964 30.2108L105.196 34.1827H103.391L99.7797 31.6551L102.428 31.0533L104.233 26.3592L103.391 22.5076L104.233 20.5818L109.649 19.6189L106.52 18.4153L105.196 18.656L104.233 17.3321L98.0947 19.6189L96.7707 21.6651L97.6132 22.5076L96.7707 22.9891L95.8078 25.7574L90.6323 23.4705L93.0395 21.6651L94.0024 18.4153L92.3173 15.5266L93.0395 11.314L97.2521 8.90676L90.6323 8.06422L85.3363 12.2769V16.7303V17.8135L79.3183 18.4153L80.0404 16.7303L81.4848 14.2027L80.7626 11.314L78.3554 8.90676V5.89772L81.4848 3.97193L80.7626 3.1294L78.3554 3.97193H76.0685L75.1056 4.45338L71.4948 9.86965L72.578 11.314V14.2027L67.6432 15.5266L68.7264 12.999V10.5918L65.8378 7.34206L63.6713 6.61989V2.52759L64.5138 0L60.903 1.08325L57.2921 6.61989L57.8939 8.90676L58.8568 9.86965L59.4586 12.999L54.5238 16.7303L55.3663 13.4805L52.9591 8.90676L48.9872 8.06422L48.0243 5.89772L48.9872 4.45338V1.92578L43.8116 4.45338L44.7745 5.89772L43.3302 10.5918L44.7745 11.314V12.2769L46.7003 15.5266L45.7374 17.8135L42.8487 19.6189V17.3321L39.7193 14.2027H36.1085L33.4605 12.2769L32.8587 7.34206L29.97 10.5918V16.7303L31.1736 18.4153L32.8587 18.656L35.3863 21.6651L32.8587 27.3221L31.8958 24.7945L30.8126 22.1465H26.7203L25.2759 22.9891L21.0633 21.6651V19.6189L19.6189 16.7303L17.5728 21.6651L20.1004 27.8035L24.4334 29.1275L26.1185 30.2108L24.4334 34.7845L22.8687 32.7383L18.5357 31.6551L16.6099 33.2198H11.6751L9.86965 29.1275L8.66603 34.7845L11.0733 37.4324L12.8787 40.2008H19.1375L18.5357 42.4876L19.6189 43.3302L19.1375 46.8206L17.5728 45.0152L12.3972 44.4134L9.86965 47.3021L6.01808 48.0243L3.49049 45.0152V50.1908L8.66603 54.5238L10.5918 53.6813H14.6841L15.4063 55.8478L16.6099 57.0514Z" fill="black"/>
</svg>
