<svg width="200" height="398" viewBox="0 0 200 398" fill="none" xmlns="http://www.w3.org/2000/svg">
<rect x="20" width="160" height="80" rx="16" fill="#FFC42C"/>
<path d="M48.9297 26.3359H51.2734V37H48.9297V26.3359ZM57.0312 31.3125H60.7344V37H59.7422L59.4375 35.7812C58.8646 36.7031 58.0052 37.1641 56.8594 37.1641C55.6458 37.1641 54.6823 36.6875 53.9688 35.7344C53.2604 34.776 52.9062 33.4896 52.9062 31.875C52.9062 30.1198 53.2552 28.7318 53.9531 27.7109C54.6562 26.6849 55.6927 26.1719 57.0625 26.1719C59.2448 26.1719 60.4688 27.3906 60.7344 29.8281L58.625 30.1719C58.4792 28.776 57.974 28.0781 57.1094 28.0781C56.5833 28.0781 56.1615 28.3359 55.8438 28.8516C55.5312 29.3672 55.375 30.3438 55.375 31.7812C55.375 33.0573 55.5286 33.9557 55.8359 34.4766C56.1432 34.9974 56.5938 35.2578 57.1875 35.2578C58.1406 35.2578 58.6198 34.5547 58.625 33.1484H57.0312V31.3125ZM62.4844 26.3359H65.0859L67.8281 32.9609V26.3359H69.6406V37H67.5469L64.2969 29.2812V37H62.4844V26.3359ZM78.9297 31.6641C78.9297 35.3307 77.6406 37.1641 75.0625 37.1641C73.7812 37.1641 72.8151 36.6979 72.1641 35.7656C71.513 34.8281 71.1875 33.4609 71.1875 31.6641C71.1875 28.0026 72.4766 26.1719 75.0547 26.1719C76.3151 26.1719 77.276 26.6302 77.9375 27.5469C78.599 28.4635 78.9297 29.8359 78.9297 31.6641ZM76.4609 31.6641C76.4609 30.2266 76.349 29.2708 76.125 28.7969C75.901 28.3177 75.5443 28.0781 75.0547 28.0781C74.5703 28.0781 74.2161 28.3177 73.9922 28.7969C73.7682 29.276 73.6562 30.2318 73.6562 31.6641C73.6562 33.0703 73.7656 34.0208 73.9844 34.5156C74.2083 35.0104 74.5651 35.2578 75.0547 35.2578C75.5391 35.2578 75.8932 35.0208 76.1172 34.5469C76.3464 34.0729 76.4609 33.112 76.4609 31.6641ZM80.5703 26.3359H83.9219C84.5729 26.3359 85.0703 26.3672 85.4141 26.4297C85.763 26.487 86.1146 26.6484 86.4688 26.9141C86.8229 27.1745 87.099 27.5339 87.2969 27.9922C87.5 28.4453 87.6016 28.9557 87.6016 29.5234C87.6016 30.8568 87.1016 31.7943 86.1016 32.3359L88.0625 37H85.5078L84.0859 32.7812H82.9141V37H80.5703V26.3359ZM82.9141 28.0625V31.0547H83.9453C84.862 31.0547 85.3203 30.5417 85.3203 29.5156C85.3203 29.1615 85.2526 28.8724 85.1172 28.6484C84.9818 28.4193 84.8229 28.2656 84.6406 28.1875C84.4635 28.1042 84.2005 28.0625 83.8516 28.0625H82.9141ZM89.2891 26.3359H95.7734V28.1641H91.6328V30.6406H94.8516V32.4766H91.6328V35.0938H95.7734V37H89.2891V26.3359ZM103.453 28.6562L101.516 29.3984C101.24 28.5182 100.734 28.0781 100 28.0781C99.6562 28.0781 99.3828 28.1771 99.1797 28.375C98.9818 28.5677 98.8828 28.7943 98.8828 29.0547C98.8828 29.3568 99 29.599 99.2344 29.7812C99.474 29.9583 99.9714 30.1927 100.727 30.4844C101.414 30.7396 101.953 30.9922 102.344 31.2422C102.74 31.4922 103.057 31.8333 103.297 32.2656C103.542 32.6927 103.664 33.1901 103.664 33.7578C103.664 34.7526 103.32 35.5703 102.633 36.2109C101.951 36.8464 101.034 37.1641 99.8828 37.1641C97.9505 37.1641 96.7161 36.1875 96.1797 34.2344L98.2266 33.6484C98.4766 34.7214 99.0469 35.2578 99.9375 35.2578C100.344 35.2578 100.672 35.1536 100.922 34.9453C101.177 34.7318 101.305 34.4531 101.305 34.1094C101.305 33.849 101.216 33.6172 101.039 33.4141C100.862 33.2057 100.456 32.987 99.8203 32.7578C99.0026 32.4661 98.3932 32.2031 97.9922 31.9688C97.5911 31.7292 97.2604 31.3906 97 30.9531C96.7396 30.5104 96.6094 30.0078 96.6094 29.4453C96.6094 28.487 96.9167 27.7031 97.5312 27.0938C98.151 26.4792 98.9688 26.1719 99.9844 26.1719C101.839 26.1719 102.995 27 103.453 28.6562ZM109.984 26.3359H112.344L115.391 37H112.992L112.461 34.7969H109.461L108.938 37H106.781L109.984 26.3359ZM112.016 32.9688L110.945 28.6172L109.906 32.9688H112.016ZM116.203 26.3359H118.805L121.547 32.9609V26.3359H123.359V37H121.266L118.016 29.2812V37H116.203V26.3359ZM123.828 26.3359H126.406L127.914 30.2266L129.523 26.3359H131.812L128.852 32.4922V37H126.508V32.4922L123.828 26.3359ZM142.727 31.6641C142.727 35.3307 141.438 37.1641 138.859 37.1641C137.578 37.1641 136.612 36.6979 135.961 35.7656C135.31 34.8281 134.984 33.4609 134.984 31.6641C134.984 28.0026 136.273 26.1719 138.852 26.1719C140.112 26.1719 141.073 26.6302 141.734 27.5469C142.396 28.4635 142.727 29.8359 142.727 31.6641ZM140.258 31.6641C140.258 30.2266 140.146 29.2708 139.922 28.7969C139.698 28.3177 139.341 28.0781 138.852 28.0781C138.367 28.0781 138.013 28.3177 137.789 28.7969C137.565 29.276 137.453 30.2318 137.453 31.6641C137.453 33.0703 137.562 34.0208 137.781 34.5156C138.005 35.0104 138.362 35.2578 138.852 35.2578C139.336 35.2578 139.69 35.0208 139.914 34.5469C140.143 34.0729 140.258 33.112 140.258 31.6641ZM144.367 26.3359H147.719C148.37 26.3359 148.867 26.3672 149.211 26.4297C149.56 26.487 149.911 26.6484 150.266 26.9141C150.62 27.1745 150.896 27.5339 151.094 27.9922C151.297 28.4453 151.398 28.9557 151.398 29.5234C151.398 30.8568 150.898 31.7943 149.898 32.3359L151.859 37H149.305L147.883 32.7812H146.711V37H144.367V26.3359ZM146.711 28.0625V31.0547H147.742C148.659 31.0547 149.117 30.5417 149.117 29.5156C149.117 29.1615 149.049 28.8724 148.914 28.6484C148.779 28.4193 148.62 28.2656 148.438 28.1875C148.26 28.1042 147.997 28.0625 147.648 28.0625H146.711ZM55.3125 44.3359H57.6719L60.7188 55H58.3203L57.7891 52.7969H54.7891L54.2656 55H52.1094L55.3125 44.3359ZM57.3438 50.9688L56.2734 46.6172L55.2344 50.9688H57.3438ZM61.6172 44.3359H63.9609V53H67.3984V55H61.6172V44.3359ZM68.4297 44.3359H70.7734V53H74.2109V55H68.4297V44.3359ZM78.2266 44.3359H81.6641L83.1719 50.9219L84.8672 44.3359H88.2031V55H86.0078V46.0703L83.8281 55H82.125L80.1328 46.0703V55H78.2266V44.3359ZM97.5859 49.6641C97.5859 53.3307 96.2969 55.1641 93.7188 55.1641C92.4375 55.1641 91.4714 54.6979 90.8203 53.7656C90.1693 52.8281 89.8438 51.4609 89.8438 49.6641C89.8438 46.0026 91.1328 44.1719 93.7109 44.1719C94.9714 44.1719 95.9323 44.6302 96.5938 45.5469C97.2552 46.4635 97.5859 47.8359 97.5859 49.6641ZM95.1172 49.6641C95.1172 48.2266 95.0052 47.2708 94.7812 46.7969C94.5573 46.3177 94.2005 46.0781 93.7109 46.0781C93.2266 46.0781 92.8724 46.3177 92.6484 46.7969C92.4245 47.276 92.3125 48.2318 92.3125 49.6641C92.3125 51.0703 92.4219 52.0208 92.6406 52.5156C92.8646 53.0104 93.2214 53.2578 93.7109 53.2578C94.1953 53.2578 94.5495 53.0208 94.7734 52.5469C95.0026 52.0729 95.1172 51.112 95.1172 49.6641ZM99.2266 44.3359H101.75C102.844 44.3359 103.732 44.4844 104.414 44.7812C105.102 45.0729 105.651 45.6146 106.062 46.4062C106.474 47.1979 106.68 48.2682 106.68 49.6172C106.68 50.5755 106.555 51.4271 106.305 52.1719C106.055 52.9115 105.727 53.4948 105.32 53.9219C104.914 54.349 104.456 54.6354 103.945 54.7812C103.435 54.9271 102.797 55 102.031 55H99.2266V44.3359ZM101.57 46.1641V53.1641H101.969C102.51 53.1641 102.93 53.0599 103.227 52.8516C103.523 52.6432 103.76 52.2812 103.938 51.7656C104.115 51.2448 104.203 50.4948 104.203 49.5156C104.203 48.6094 104.104 47.9115 103.906 47.4219C103.714 46.9323 103.469 46.6016 103.172 46.4297C102.88 46.2526 102.479 46.1641 101.969 46.1641H101.57ZM108.227 44.3359H110.57V55H108.227V44.3359ZM112.586 44.3359H118.914V46.1641H114.93V48.9531H118V50.7812H114.93V55H112.586V44.3359ZM119.68 44.3359H122.023V55H119.68V44.3359ZM124.039 44.3359H130.523V46.1641H126.383V48.6406H129.602V50.4766H126.383V53.0938H130.523V55H124.039V44.3359ZM131.68 44.3359H135.031C135.682 44.3359 136.18 44.3672 136.523 44.4297C136.872 44.487 137.224 44.6484 137.578 44.9141C137.932 45.1745 138.208 45.5339 138.406 45.9922C138.609 46.4453 138.711 46.9557 138.711 47.5234C138.711 48.8568 138.211 49.7943 137.211 50.3359L139.172 55H136.617L135.195 50.7812H134.023V55H131.68V44.3359ZM134.023 46.0625V49.0547H135.055C135.971 49.0547 136.43 48.5417 136.43 47.5156C136.43 47.1615 136.362 46.8724 136.227 46.6484C136.091 46.4193 135.932 46.2656 135.75 46.1875C135.573 46.1042 135.31 46.0625 134.961 46.0625H134.023ZM146.922 46.6562L144.984 47.3984C144.708 46.5182 144.203 46.0781 143.469 46.0781C143.125 46.0781 142.852 46.1771 142.648 46.375C142.451 46.5677 142.352 46.7943 142.352 47.0547C142.352 47.3568 142.469 47.599 142.703 47.7812C142.943 47.9583 143.44 48.1927 144.195 48.4844C144.883 48.7396 145.422 48.9922 145.812 49.2422C146.208 49.4922 146.526 49.8333 146.766 50.2656C147.01 50.6927 147.133 51.1901 147.133 51.7578C147.133 52.7526 146.789 53.5703 146.102 54.2109C145.419 54.8464 144.503 55.1641 143.352 55.1641C141.419 55.1641 140.185 54.1875 139.648 52.2344L141.695 51.6484C141.945 52.7214 142.516 53.2578 143.406 53.2578C143.812 53.2578 144.141 53.1536 144.391 52.9453C144.646 52.7318 144.773 52.4531 144.773 52.1094C144.773 51.849 144.685 51.6172 144.508 51.4141C144.331 51.2057 143.924 50.987 143.289 50.7578C142.471 50.4661 141.862 50.2031 141.461 49.9688C141.06 49.7292 140.729 49.3906 140.469 48.9531C140.208 48.5104 140.078 48.0078 140.078 47.4453C140.078 46.487 140.385 45.7031 141 45.0938C141.62 44.4792 142.438 44.1719 143.453 44.1719C145.307 44.1719 146.464 45 146.922 46.6562Z" fill="black"/>
<rect x="20" y="106" width="160" height="80" rx="16" fill="#FFC42C"/>
<path d="M57.0098 133.002H58.7793L61.0645 141H59.2656L58.8672 139.348H56.6172L56.2246 141H54.6074L57.0098 133.002ZM58.5332 137.977L57.7305 134.713L56.9512 137.977H58.5332ZM66.6309 134.742L65.1777 135.299C64.9707 134.639 64.5918 134.309 64.041 134.309C63.7832 134.309 63.5781 134.383 63.4258 134.531C63.2773 134.676 63.2031 134.846 63.2031 135.041C63.2031 135.268 63.291 135.449 63.4668 135.586C63.6465 135.719 64.0195 135.895 64.5859 136.113C65.1016 136.305 65.5059 136.494 65.7988 136.682C66.0957 136.869 66.334 137.125 66.5137 137.449C66.6973 137.77 66.7891 138.143 66.7891 138.568C66.7891 139.314 66.5312 139.928 66.0156 140.408C65.5039 140.885 64.8164 141.123 63.9531 141.123C62.5039 141.123 61.5781 140.391 61.1758 138.926L62.7109 138.486C62.8984 139.291 63.3262 139.693 63.9941 139.693C64.2988 139.693 64.5449 139.615 64.7324 139.459C64.9238 139.299 65.0195 139.09 65.0195 138.832C65.0195 138.637 64.9531 138.463 64.8203 138.311C64.6875 138.154 64.3828 137.99 63.9062 137.818C63.293 137.6 62.8359 137.402 62.5352 137.227C62.2344 137.047 61.9863 136.793 61.791 136.465C61.5957 136.133 61.498 135.756 61.498 135.334C61.498 134.615 61.7285 134.027 62.1895 133.57C62.6543 133.109 63.2676 132.879 64.0293 132.879C65.4199 132.879 66.2871 133.5 66.6309 134.742ZM72.7715 134.742L71.3184 135.299C71.1113 134.639 70.7324 134.309 70.1816 134.309C69.9238 134.309 69.7188 134.383 69.5664 134.531C69.418 134.676 69.3438 134.846 69.3438 135.041C69.3438 135.268 69.4316 135.449 69.6074 135.586C69.7871 135.719 70.1602 135.895 70.7266 136.113C71.2422 136.305 71.6465 136.494 71.9395 136.682C72.2363 136.869 72.4746 137.125 72.6543 137.449C72.8379 137.77 72.9297 138.143 72.9297 138.568C72.9297 139.314 72.6719 139.928 72.1562 140.408C71.6445 140.885 70.957 141.123 70.0938 141.123C68.6445 141.123 67.7188 140.391 67.3164 138.926L68.8516 138.486C69.0391 139.291 69.4668 139.693 70.1348 139.693C70.4395 139.693 70.6855 139.615 70.873 139.459C71.0645 139.299 71.1602 139.09 71.1602 138.832C71.1602 138.637 71.0938 138.463 70.9609 138.311C70.8281 138.154 70.5234 137.99 70.0469 137.818C69.4336 137.6 68.9766 137.402 68.6758 137.227C68.375 137.047 68.127 136.793 67.9316 136.465C67.7363 136.133 67.6387 135.756 67.6387 135.334C67.6387 134.615 67.8691 134.027 68.3301 133.57C68.7949 133.109 69.4082 132.879 70.1699 132.879C71.5605 132.879 72.4277 133.5 72.7715 134.742ZM75.5723 133.002H77.3418L79.627 141H77.8281L77.4297 139.348H75.1797L74.7871 141H73.1699L75.5723 133.002ZM77.0957 137.977L76.293 134.713L75.5137 137.977H77.0957ZM80.1484 133.002H81.9062V137.572C81.9062 138.217 81.9355 138.666 81.9941 138.92C82.0527 139.174 82.1738 139.367 82.3574 139.5C82.5449 139.629 82.7734 139.693 83.043 139.693C83.3359 139.693 83.5684 139.621 83.7402 139.477C83.9121 139.332 84.0176 139.141 84.0566 138.902C84.0957 138.664 84.1152 138.221 84.1152 137.572V133.002H85.5859V137.502C85.5859 138.4 85.5332 139.07 85.4277 139.512C85.3262 139.953 85.0625 140.332 84.6367 140.648C84.2148 140.965 83.6328 141.123 82.8906 141.123C82.1953 141.123 81.6484 141.008 81.25 140.777C80.8516 140.543 80.5684 140.217 80.4004 139.799C80.2324 139.377 80.1484 138.635 80.1484 137.572V133.002ZM87.0977 133.002H88.8555V139.5H91.4336V141H87.0977V133.002ZM91.041 133.002H96.0273V134.502H94.3926V141H92.6348V134.502H91.041V133.002ZM98.875 133.002H100.768C101.588 133.002 102.254 133.113 102.766 133.336C103.281 133.555 103.693 133.961 104.002 134.555C104.311 135.148 104.465 135.951 104.465 136.963C104.465 137.682 104.371 138.32 104.184 138.879C103.996 139.434 103.75 139.871 103.445 140.191C103.141 140.512 102.797 140.727 102.414 140.836C102.031 140.945 101.553 141 100.979 141H98.875V133.002ZM100.633 134.373V139.623H100.932C101.338 139.623 101.652 139.545 101.875 139.389C102.098 139.232 102.275 138.961 102.408 138.574C102.541 138.184 102.607 137.621 102.607 136.887C102.607 136.207 102.533 135.684 102.385 135.316C102.24 134.949 102.057 134.701 101.834 134.572C101.615 134.439 101.314 134.373 100.932 134.373H100.633ZM111.145 136.998C111.145 139.748 110.178 141.123 108.244 141.123C107.283 141.123 106.559 140.773 106.07 140.074C105.582 139.371 105.338 138.346 105.338 136.998C105.338 134.252 106.305 132.879 108.238 132.879C109.184 132.879 109.904 133.223 110.4 133.91C110.896 134.598 111.145 135.627 111.145 136.998ZM109.293 136.998C109.293 135.92 109.209 135.203 109.041 134.848C108.873 134.488 108.605 134.309 108.238 134.309C107.875 134.309 107.609 134.488 107.441 134.848C107.273 135.207 107.189 135.924 107.189 136.998C107.189 138.053 107.271 138.766 107.436 139.137C107.604 139.508 107.871 139.693 108.238 139.693C108.602 139.693 108.867 139.516 109.035 139.16C109.207 138.805 109.293 138.084 109.293 136.998ZM116.266 138.088L117.889 138.188C117.83 139.055 117.555 139.762 117.062 140.309C116.57 140.852 115.92 141.123 115.111 141.123C114.127 141.123 113.377 140.758 112.861 140.027C112.346 139.297 112.088 138.291 112.088 137.01C112.088 135.717 112.344 134.705 112.855 133.975C113.367 133.244 114.127 132.879 115.135 132.879C116.803 132.879 117.711 133.91 117.859 135.973L116.254 136.09C116.211 134.902 115.84 134.309 115.141 134.309C114.773 134.309 114.48 134.5 114.262 134.883C114.047 135.266 113.939 136.008 113.939 137.109C113.939 138.094 114.039 138.771 114.238 139.143C114.438 139.51 114.736 139.693 115.135 139.693C115.775 139.693 116.152 139.158 116.266 138.088ZM118.029 133.002H123.016V134.502H121.381V141H119.623V134.502H118.029V133.002ZM123.625 133.002H126.139C126.627 133.002 127 133.025 127.258 133.072C127.52 133.115 127.783 133.236 128.049 133.436C128.314 133.631 128.521 133.9 128.67 134.244C128.822 134.584 128.898 134.967 128.898 135.393C128.898 136.393 128.523 137.096 127.773 137.502L129.244 141H127.328L126.262 137.836H125.383V141H123.625V133.002ZM125.383 134.297V136.541H126.156C126.844 136.541 127.188 136.156 127.188 135.387C127.188 135.121 127.137 134.904 127.035 134.736C126.934 134.564 126.814 134.449 126.678 134.391C126.545 134.328 126.348 134.297 126.086 134.297H125.383ZM130.164 133.002H131.922V141H130.164V133.002ZM133.369 133.002H135.32L137.377 137.971V133.002H138.736V141H137.166L134.729 135.211V141H133.369V133.002ZM140.184 133.002H145.047V134.373H141.941V136.23H144.355V137.607H141.941V139.57H145.047V141H140.184V133.002ZM39.8594 148.336H42.2188L45.2656 159H42.8672L42.3359 156.797H39.3359L38.8125 159H36.6562L39.8594 148.336ZM41.8906 154.969L40.8203 150.617L39.7812 154.969H41.8906ZM46.1641 148.336H48.6875C49.7812 148.336 50.6693 148.484 51.3516 148.781C52.0391 149.073 52.5885 149.615 53 150.406C53.4115 151.198 53.6172 152.268 53.6172 153.617C53.6172 154.576 53.4922 155.427 53.2422 156.172C52.9922 156.911 52.6641 157.495 52.2578 157.922C51.8516 158.349 51.3932 158.635 50.8828 158.781C50.3724 158.927 49.7344 159 48.9688 159H46.1641V148.336ZM48.5078 150.164V157.164H48.9062C49.4479 157.164 49.8672 157.06 50.1641 156.852C50.4609 156.643 50.6979 156.281 50.875 155.766C51.0521 155.245 51.1406 154.495 51.1406 153.516C51.1406 152.609 51.0417 151.911 50.8438 151.422C50.651 150.932 50.4062 150.602 50.1094 150.43C49.8177 150.253 49.4167 150.164 48.9062 150.164H48.5078ZM53.9375 148.336H56.3984L58.0391 156.461L59.7344 148.336H61.7422L59.125 159.055L56.5 159L53.9375 148.336ZM64.2812 148.336H66.6406L69.6875 159H67.2891L66.7578 156.797H63.7578L63.2344 159H61.0781L64.2812 148.336ZM66.3125 154.969L65.2422 150.617L64.2031 154.969H66.3125ZM70.5 148.336H73.1016L75.8438 154.961V148.336H77.6562V159H75.5625L72.3125 151.281V159H70.5V148.336ZM84.7734 155.117L86.9375 155.25C86.8594 156.406 86.4922 157.349 85.8359 158.078C85.1797 158.802 84.3125 159.164 83.2344 159.164C81.9219 159.164 80.9219 158.677 80.2344 157.703C79.5469 156.729 79.2031 155.388 79.2031 153.68C79.2031 151.956 79.5443 150.607 80.2266 149.633C80.9089 148.659 81.9219 148.172 83.2656 148.172C85.4896 148.172 86.7005 149.547 86.8984 152.297L84.7578 152.453C84.7005 150.87 84.2057 150.078 83.2734 150.078C82.7839 150.078 82.3932 150.333 82.1016 150.844C81.8151 151.354 81.6719 152.344 81.6719 153.812C81.6719 155.125 81.8047 156.029 82.0703 156.523C82.3359 157.013 82.7344 157.258 83.2656 157.258C84.1198 157.258 84.6224 156.544 84.7734 155.117ZM88.3203 148.336H94.8047V150.164H90.6641V152.641H93.8828V154.477H90.6641V157.094H94.8047V159H88.3203V148.336ZM106.109 152.898L107.852 153.211C107.565 154.471 107.081 155.609 106.398 156.625C106.768 157.01 107.13 157.203 107.484 157.203C107.531 157.203 107.654 157.198 107.852 157.188V159C107.56 159.073 107.289 159.109 107.039 159.109C106.299 159.109 105.609 158.773 104.969 158.102C104.099 158.81 103.133 159.164 102.07 159.164C100.893 159.164 100.031 158.849 99.4844 158.219C98.9427 157.589 98.6719 156.854 98.6719 156.016C98.6719 154.646 99.4792 153.62 101.094 152.938C100.432 152.031 100.102 151.234 100.102 150.547C100.102 149.906 100.362 149.352 100.883 148.883C101.409 148.409 102.086 148.172 102.914 148.172C103.753 148.172 104.417 148.417 104.906 148.906C105.401 149.396 105.648 150 105.648 150.719C105.648 151.792 105.034 152.646 103.805 153.281L105.281 155.242C105.62 154.69 105.896 153.909 106.109 152.898ZM102.898 152.062C103.539 151.703 103.859 151.214 103.859 150.594C103.859 150.344 103.789 150.133 103.648 149.961C103.513 149.784 103.307 149.695 103.031 149.695C102.766 149.695 102.56 149.773 102.414 149.93C102.268 150.086 102.195 150.286 102.195 150.531C102.195 150.911 102.43 151.422 102.898 152.062ZM101.984 154.172C101.26 154.609 100.898 155.177 100.898 155.875C100.898 156.323 101.031 156.69 101.297 156.977C101.562 157.263 101.938 157.406 102.422 157.406C102.99 157.406 103.487 157.198 103.914 156.781L101.984 154.172ZM117.477 155.117L119.641 155.25C119.562 156.406 119.195 157.349 118.539 158.078C117.883 158.802 117.016 159.164 115.938 159.164C114.625 159.164 113.625 158.677 112.938 157.703C112.25 156.729 111.906 155.388 111.906 153.68C111.906 151.956 112.247 150.607 112.93 149.633C113.612 148.659 114.625 148.172 115.969 148.172C118.193 148.172 119.404 149.547 119.602 152.297L117.461 152.453C117.404 150.87 116.909 150.078 115.977 150.078C115.487 150.078 115.096 150.333 114.805 150.844C114.518 151.354 114.375 152.344 114.375 153.812C114.375 155.125 114.508 156.029 114.773 156.523C115.039 157.013 115.438 157.258 115.969 157.258C116.823 157.258 117.326 156.544 117.477 155.117ZM121.023 148.336H123.367V152.641H125.93V148.336H128.273V159H125.93V154.641H123.367V159H121.023V148.336ZM132.172 148.336H134.531L137.578 159H135.18L134.648 156.797H131.648L131.125 159H128.969L132.172 148.336ZM134.203 154.969L133.133 150.617L132.094 154.969H134.203ZM138.477 148.336H141.828C142.479 148.336 142.977 148.367 143.32 148.43C143.669 148.487 144.021 148.648 144.375 148.914C144.729 149.174 145.005 149.534 145.203 149.992C145.406 150.445 145.508 150.956 145.508 151.523C145.508 152.857 145.008 153.794 144.008 154.336L145.969 159H143.414L141.992 154.781H140.82V159H138.477V148.336ZM140.82 150.062V153.055H141.852C142.768 153.055 143.227 152.542 143.227 151.516C143.227 151.161 143.159 150.872 143.023 150.648C142.888 150.419 142.729 150.266 142.547 150.188C142.37 150.104 142.107 150.062 141.758 150.062H140.82ZM150.859 153.312H154.562V159H153.57L153.266 157.781C152.693 158.703 151.833 159.164 150.688 159.164C149.474 159.164 148.51 158.688 147.797 157.734C147.089 156.776 146.734 155.49 146.734 153.875C146.734 152.12 147.083 150.732 147.781 149.711C148.484 148.685 149.521 148.172 150.891 148.172C153.073 148.172 154.297 149.391 154.562 151.828L152.453 152.172C152.307 150.776 151.802 150.078 150.938 150.078C150.411 150.078 149.99 150.336 149.672 150.852C149.359 151.367 149.203 152.344 149.203 153.781C149.203 155.057 149.357 155.956 149.664 156.477C149.971 156.997 150.422 157.258 151.016 157.258C151.969 157.258 152.448 156.555 152.453 155.148H150.859V153.312ZM156.398 148.336H162.883V150.164H158.742V152.641H161.961V154.477H158.742V157.094H162.883V159H156.398V148.336Z" fill="black"/>
<rect x="20" y="212" width="160" height="80" rx="16" fill="#FFC42C"/>
<path d="M72.25 238.336H74.5938V244.43C74.5938 245.289 74.6328 245.888 74.7109 246.227C74.7891 246.565 74.9505 246.823 75.1953 247C75.4453 247.172 75.75 247.258 76.1094 247.258C76.5 247.258 76.8099 247.161 77.0391 246.969C77.2682 246.776 77.4089 246.521 77.4609 246.203C77.513 245.885 77.5391 245.294 77.5391 244.43V238.336H79.5V244.336C79.5 245.534 79.4297 246.427 79.2891 247.016C79.1536 247.604 78.8021 248.109 78.2344 248.531C77.6719 248.953 76.8958 249.164 75.9062 249.164C74.9792 249.164 74.25 249.01 73.7188 248.703C73.1875 248.391 72.8099 247.956 72.5859 247.398C72.362 246.836 72.25 245.846 72.25 244.43V238.336ZM81.4297 238.336H84.0312L86.7734 244.961V238.336H88.5859V249H86.4922L83.2422 241.281V249H81.4297V238.336ZM90.5156 238.336H92.8594V249H90.5156V238.336ZM93.6797 238.336H100.328V240.336H98.1484V249H95.8047V240.336H93.6797V238.336ZM104.125 238.336H106.469V242.641H109.031V238.336H111.375V249H109.031V244.641H106.469V249H104.125V238.336ZM115.273 238.336H117.633L120.68 249H118.281L117.75 246.797H114.75L114.227 249H112.07L115.273 238.336ZM117.305 244.969L116.234 240.617L115.195 244.969H117.305ZM128.102 240.656L126.164 241.398C125.888 240.518 125.383 240.078 124.648 240.078C124.305 240.078 124.031 240.177 123.828 240.375C123.63 240.568 123.531 240.794 123.531 241.055C123.531 241.357 123.648 241.599 123.883 241.781C124.122 241.958 124.62 242.193 125.375 242.484C126.062 242.74 126.602 242.992 126.992 243.242C127.388 243.492 127.706 243.833 127.945 244.266C128.19 244.693 128.312 245.19 128.312 245.758C128.312 246.753 127.969 247.57 127.281 248.211C126.599 248.846 125.682 249.164 124.531 249.164C122.599 249.164 121.365 248.188 120.828 246.234L122.875 245.648C123.125 246.721 123.695 247.258 124.586 247.258C124.992 247.258 125.32 247.154 125.57 246.945C125.826 246.732 125.953 246.453 125.953 246.109C125.953 245.849 125.865 245.617 125.688 245.414C125.51 245.206 125.104 244.987 124.469 244.758C123.651 244.466 123.042 244.203 122.641 243.969C122.24 243.729 121.909 243.391 121.648 242.953C121.388 242.51 121.258 242.008 121.258 241.445C121.258 240.487 121.565 239.703 122.18 239.094C122.799 238.479 123.617 238.172 124.633 238.172C126.487 238.172 127.643 239 128.102 240.656ZM62.8281 256.336H65.1719V265H68.6094V267H62.8281V256.336ZM69.6406 256.336H76.125V258.164H71.9844V260.641H75.2031V262.477H71.9844V265.094H76.125V267H69.6406V256.336ZM76.0859 256.336H82.7344V258.336H80.5547V267H78.2109V258.336H76.0859V256.336ZM83.5469 256.336H85.8906V260.641H88.4531V256.336H90.7969V267H88.4531V262.641H85.8906V267H83.5469V256.336ZM94.6953 256.336H97.0547L100.102 267H97.7031L97.1719 264.797H94.1719L93.6484 267H91.4922L94.6953 256.336ZM96.7266 262.969L95.6562 258.617L94.6172 262.969H96.7266ZM101 256.336H103.344V265H106.781V267H101V256.336ZM110.797 256.336H113.141V260.641H115.703V256.336H118.047V267H115.703V262.641H113.141V267H110.797V256.336ZM120.062 256.336H122.406V267H120.062V256.336ZM123.227 256.336H129.875V258.336H127.695V267H125.352V258.336H123.227V256.336ZM137.523 258.656L135.586 259.398C135.31 258.518 134.805 258.078 134.07 258.078C133.727 258.078 133.453 258.177 133.25 258.375C133.052 258.568 132.953 258.794 132.953 259.055C132.953 259.357 133.07 259.599 133.305 259.781C133.544 259.958 134.042 260.193 134.797 260.484C135.484 260.74 136.023 260.992 136.414 261.242C136.81 261.492 137.128 261.833 137.367 262.266C137.612 262.693 137.734 263.19 137.734 263.758C137.734 264.753 137.391 265.57 136.703 266.211C136.021 266.846 135.104 267.164 133.953 267.164C132.021 267.164 130.786 266.188 130.25 264.234L132.297 263.648C132.547 264.721 133.117 265.258 134.008 265.258C134.414 265.258 134.742 265.154 134.992 264.945C135.247 264.732 135.375 264.453 135.375 264.109C135.375 263.849 135.286 263.617 135.109 263.414C134.932 263.206 134.526 262.987 133.891 262.758C133.073 262.466 132.464 262.203 132.062 261.969C131.661 261.729 131.331 261.391 131.07 260.953C130.81 260.51 130.68 260.008 130.68 259.445C130.68 258.487 130.987 257.703 131.602 257.094C132.221 256.479 133.039 256.172 134.055 256.172C135.909 256.172 137.065 257 137.523 258.656Z" fill="black"/>
<rect x="20" y="318" width="80" height="80" rx="16" fill="#FFC42C"/>
<path d="M45.8047 346.656L43.8672 347.398C43.5911 346.518 43.0859 346.078 42.3516 346.078C42.0078 346.078 41.7344 346.177 41.5312 346.375C41.3333 346.568 41.2344 346.794 41.2344 347.055C41.2344 347.357 41.3516 347.599 41.5859 347.781C41.8255 347.958 42.3229 348.193 43.0781 348.484C43.7656 348.74 44.3047 348.992 44.6953 349.242C45.0911 349.492 45.4089 349.833 45.6484 350.266C45.8932 350.693 46.0156 351.19 46.0156 351.758C46.0156 352.753 45.6719 353.57 44.9844 354.211C44.3021 354.846 43.3854 355.164 42.2344 355.164C40.3021 355.164 39.0677 354.188 38.5312 352.234L40.5781 351.648C40.8281 352.721 41.3984 353.258 42.2891 353.258C42.6953 353.258 43.0234 353.154 43.2734 352.945C43.5286 352.732 43.6562 352.453 43.6562 352.109C43.6562 351.849 43.5677 351.617 43.3906 351.414C43.2135 351.206 42.8073 350.987 42.1719 350.758C41.3542 350.466 40.7448 350.203 40.3438 349.969C39.9427 349.729 39.612 349.391 39.3516 348.953C39.0911 348.51 38.9609 348.008 38.9609 347.445C38.9609 346.487 39.2682 345.703 39.8828 345.094C40.5026 344.479 41.3203 344.172 42.3359 344.172C44.1901 344.172 45.3464 345 45.8047 346.656ZM46.6328 344.336H53.2812V346.336H51.1016V355H48.7578V346.336H46.6328V344.336ZM54.0938 344.336H56.4375V355H54.0938V344.336ZM63.6406 351.117L65.8047 351.25C65.7266 352.406 65.3594 353.349 64.7031 354.078C64.0469 354.802 63.1797 355.164 62.1016 355.164C60.7891 355.164 59.7891 354.677 59.1016 353.703C58.4141 352.729 58.0703 351.388 58.0703 349.68C58.0703 347.956 58.4115 346.607 59.0938 345.633C59.776 344.659 60.7891 344.172 62.1328 344.172C64.3568 344.172 65.5677 345.547 65.7656 348.297L63.625 348.453C63.5677 346.87 63.0729 346.078 62.1406 346.078C61.651 346.078 61.2604 346.333 60.9688 346.844C60.6823 347.354 60.5391 348.344 60.5391 349.812C60.5391 351.125 60.6719 352.029 60.9375 352.523C61.2031 353.013 61.6016 353.258 62.1328 353.258C62.987 353.258 63.4896 352.544 63.6406 351.117ZM67.1875 344.336H69.5312V348.781L72.125 344.336H74.4922L71.8203 348.258L74.7188 355H72.2969L70.4219 350.086L69.5312 351.375V355H67.1875V344.336ZM74.1797 344.336H76.7578L78.2656 348.227L79.875 344.336H82.1641L79.2031 350.492V355H76.8594V350.492L74.1797 344.336ZM35.7734 367.664C35.7734 371.331 34.4844 373.164 31.9062 373.164C30.625 373.164 29.6589 372.698 29.0078 371.766C28.3568 370.828 28.0312 369.461 28.0312 367.664C28.0312 364.003 29.3203 362.172 31.8984 362.172C33.1589 362.172 34.1198 362.63 34.7812 363.547C35.4427 364.464 35.7734 365.836 35.7734 367.664ZM33.3047 367.664C33.3047 366.227 33.1927 365.271 32.9688 364.797C32.7448 364.318 32.388 364.078 31.8984 364.078C31.4141 364.078 31.0599 364.318 30.8359 364.797C30.612 365.276 30.5 366.232 30.5 367.664C30.5 369.07 30.6094 370.021 30.8281 370.516C31.0521 371.01 31.4089 371.258 31.8984 371.258C32.3828 371.258 32.737 371.021 32.9609 370.547C33.1901 370.073 33.3047 369.112 33.3047 367.664ZM37.4141 362.336H41.0547C41.9089 362.336 42.5521 362.404 42.9844 362.539C43.4219 362.674 43.7865 362.971 44.0781 363.43C44.375 363.888 44.5234 364.458 44.5234 365.141C44.5234 366.333 44.0156 367.099 43 367.438C44.2083 367.865 44.8125 368.737 44.8125 370.055C44.8125 370.747 44.6484 371.333 44.3203 371.812C43.9922 372.286 43.5859 372.604 43.1016 372.766C42.6224 372.922 41.9401 373 41.0547 373H37.4141V362.336ZM39.6641 366.641H40.4219C41.1771 366.641 41.651 366.505 41.8438 366.234C42.0417 365.964 42.1406 365.654 42.1406 365.305C42.1406 364.982 42.0417 364.695 41.8438 364.445C41.651 364.19 41.2344 364.062 40.5938 364.062H39.6641V366.641ZM39.6641 371.164H40.8125C41.8906 371.164 42.4297 370.701 42.4297 369.773C42.4297 369.258 42.2943 368.896 42.0234 368.688C41.7578 368.474 41.3542 368.367 40.8125 368.367H39.6641V371.164ZM47.2891 362.336H49.6328V369.414C49.6328 370.315 49.5651 371.018 49.4297 371.523C49.2995 372.023 49.026 372.422 48.6094 372.719C48.1927 373.016 47.5755 373.164 46.7578 373.164C46.4036 373.164 45.9271 373.109 45.3281 373V371.039C45.7031 371.112 46.0182 371.148 46.2734 371.148C46.6849 371.148 46.9557 371.039 47.0859 370.82C47.2214 370.596 47.2891 370.128 47.2891 369.414V362.336ZM51.6016 362.336H58.0859V364.164H53.9453V366.641H57.1641V368.477H53.9453V371.094H58.0859V373H51.6016V362.336ZM64.4297 369.117L66.5938 369.25C66.5156 370.406 66.1484 371.349 65.4922 372.078C64.8359 372.802 63.9688 373.164 62.8906 373.164C61.5781 373.164 60.5781 372.677 59.8906 371.703C59.2031 370.729 58.8594 369.388 58.8594 367.68C58.8594 365.956 59.2005 364.607 59.8828 363.633C60.5651 362.659 61.5781 362.172 62.9219 362.172C65.1458 362.172 66.3568 363.547 66.5547 366.297L64.4141 366.453C64.3568 364.87 63.862 364.078 62.9297 364.078C62.4401 364.078 62.0495 364.333 61.7578 364.844C61.4714 365.354 61.3281 366.344 61.3281 367.812C61.3281 369.125 61.4609 370.029 61.7266 370.523C61.9922 371.013 62.3906 371.258 62.9219 371.258C63.776 371.258 64.2786 370.544 64.4297 369.117ZM66.7812 362.336H73.4297V364.336H71.25V373H68.9062V364.336H66.7812V362.336ZM74.2422 362.336H76.5859V373H74.2422V362.336ZM77.375 362.336H79.8359L81.4766 370.461L83.1719 362.336H85.1797L82.5625 373.055L79.9375 373L77.375 362.336ZM85.9609 362.336H92.4453V364.164H88.3047V366.641H91.5234V368.477H88.3047V371.094H92.4453V373H85.9609V362.336Z" fill="black"/>
<rect x="104" y="318" width="80" height="80" rx="16" fill="#FFC42C"/>
<path d="M133.148 349.312H136.852V355H135.859L135.555 353.781C134.982 354.703 134.122 355.164 132.977 355.164C131.763 355.164 130.799 354.688 130.086 353.734C129.378 352.776 129.023 351.49 129.023 349.875C129.023 348.12 129.372 346.732 130.07 345.711C130.773 344.685 131.81 344.172 133.18 344.172C135.362 344.172 136.586 345.391 136.852 347.828L134.742 348.172C134.596 346.776 134.091 346.078 133.227 346.078C132.701 346.078 132.279 346.336 131.961 346.852C131.648 347.367 131.492 348.344 131.492 349.781C131.492 351.057 131.646 351.956 131.953 352.477C132.26 352.997 132.711 353.258 133.305 353.258C134.258 353.258 134.737 352.555 134.742 351.148H133.148V349.312ZM140.945 344.336H143.305L146.352 355H143.953L143.422 352.797H140.422L139.898 355H137.742L140.945 344.336ZM142.977 350.969L141.906 346.617L140.867 350.969H142.977ZM147.25 344.336H149.594V355H147.25V344.336ZM151.523 344.336H154.125L156.867 350.961V344.336H158.68V355H156.586L153.336 347.281V355H151.523V344.336ZM124.82 362.336H127.164V371H130.602V373H124.82V362.336ZM133.516 362.336H135.875L138.922 373H136.523L135.992 370.797H132.992L132.469 373H130.312L133.516 362.336ZM135.547 368.969L134.477 364.617L133.438 368.969H135.547ZM139.734 362.336H142.336L145.078 368.961V362.336H146.891V373H144.797L141.547 365.281V373H139.734V362.336ZM154.008 369.117L156.172 369.25C156.094 370.406 155.727 371.349 155.07 372.078C154.414 372.802 153.547 373.164 152.469 373.164C151.156 373.164 150.156 372.677 149.469 371.703C148.781 370.729 148.438 369.388 148.438 367.68C148.438 365.956 148.779 364.607 149.461 363.633C150.143 362.659 151.156 362.172 152.5 362.172C154.724 362.172 155.935 363.547 156.133 366.297L153.992 366.453C153.935 364.87 153.44 364.078 152.508 364.078C152.018 364.078 151.628 364.333 151.336 364.844C151.049 365.354 150.906 366.344 150.906 367.812C150.906 369.125 151.039 370.029 151.305 370.523C151.57 371.013 151.969 371.258 152.5 371.258C153.354 371.258 153.857 370.544 154.008 369.117ZM157.555 362.336H164.039V364.164H159.898V366.641H163.117V368.477H159.898V371.094H164.039V373H157.555V362.336Z" fill="black"/>
</svg>
