<svg width="182" height="24" viewBox="0 0 182 24" fill="none" xmlns="http://www.w3.org/2000/svg">
<path fill-rule="evenodd" clip-rule="evenodd" d="M0.5 3C0.5 1.34315 1.84315 0 3.5 0H178.5C180.157 0 181.5 1.34315 181.5 3V12C181.5 12.4049 181.42 12.7911 181.274 13.1435L180.598 19.5708C180.533 20.1836 180.342 20.7762 180.036 21.3112L179.458 22.3236C178.882 23.3311 177.74 23.8733 176.595 23.6826C175.892 23.5654 175.261 23.1818 174.834 22.6115L174.372 21.9964C174.125 21.6669 173.923 21.3063 173.77 20.9239L173.275 19.6879C173.093 19.2318 172.844 18.805 172.537 18.4214L171.783 17.4786C171.269 16.8361 170.604 16.3304 169.848 16.0063L167.5 15H14.5L11.6911 16.2038C11.2374 16.3983 10.8387 16.7017 10.5303 17.0872L9.27772 18.6529C9.09358 18.883 8.94437 19.1391 8.83489 19.4128L8.14736 21.1316C8.04955 21.3761 7.91996 21.6067 7.76193 21.8174L7.16636 22.6115C6.73865 23.1818 6.10767 23.5654 5.40451 23.6826C4.25997 23.8733 3.11775 23.3311 2.54207 22.3236L1.81279 21.0474C1.60652 20.6864 1.47753 20.2865 1.434 19.873L0.725632 13.1435C0.580219 12.7911 0.5 12.4049 0.5 12V3Z" fill="#FF2C2C"/>
</svg>
