<svg width="188" height="27" viewBox="0 0 188 27" fill="none" xmlns="http://www.w3.org/2000/svg">
<path fill-rule="evenodd" clip-rule="evenodd" d="M172.876 16.7773H14.7506L8.25529 25.4378C7.63098 26.2702 6.61993 26.7197 5.58368 26.6255L4.37375 26.5155C2.87325 26.3791 1.7067 25.1509 1.64766 23.6454L0.90473 4.70073C0.82723 2.72445 2.64985 1.21527 4.57701 1.65999L6.5047 2.10485C6.99429 2.21783 7.44766 2.45197 7.82321 2.78579L14.5637 8.77734H173.974L179.925 2.08604C180.301 1.66279 180.79 1.35475 181.334 1.19754L182.571 0.840227C184.442 0.299552 186.325 1.65823 186.401 3.60481L187.097 21.3534C187.174 23.3296 185.352 24.8388 183.425 24.3941L181.497 23.9492C181.007 23.8362 180.554 23.6021 180.179 23.2683L172.876 16.7773Z" fill="#FF2C2C"/>
</svg>
